<?xml version="1.0" encoding="UTF-8"?>
<!DOCTYPE svg PUBLIC "-//W3C//DTD SVG 1.1//EN" "http://www.w3.org/Graphics/SVG/1.1/DTD/svg11.dtd">
<!-- Creator: CorelDRAW X8 -->
<svg xmlns="http://www.w3.org/2000/svg" xml:space="preserve" width="649.999mm" height="135.7mm" version="1.1" style="shape-rendering:geometricPrecision; text-rendering:geometricPrecision; image-rendering:optimizeQuality; fill-rule:evenodd; clip-rule:evenodd"
viewBox="0 0 65000 13570"
 xmlns:xlink="http://www.w3.org/1999/xlink">
 <defs>
  <style type="text/css">
   <![CDATA[
    .str0 {stroke:white;stroke-width:158.75}
    .fil1 {fill:#2205A7}
    .fil2 {fill:#95FF00}
    .fil0 {fill:white}
    .fil3 {fill:#2205A7;fill-rule:nonzero}
   ]]>
  </style>
 </defs>
 <g id="Camada_x0020_1">
  <metadata id="CorelCorpID_0Corel-Layer"/>
  <path id="Fill-1" class="fil0 str0" d="M9582 9770l-3140 0c-1731,0 -3140,-1409 -3140,-3141 0,-1730 1409,-3139 3140,-3139 1731,0 3140,1409 3140,3139l0 3141z"/>
  <circle class="fil1" cx="6853" cy="6816" r="6773"/>
  <path class="fil2" d="M2677 4874c0,401 124,368 736,731 831,492 1545,1242 2114,2013 574,777 1037,1894 1236,2891 107,542 15,922 591,922 366,0 418,-337 531,-616 747,-1949 1485,-3896 2220,-5850 68,-249 -171,-539 -504,-550l-6466 0c-230,0 -458,228 -458,459z"/>
  <path class="fil3" d="M18986 9553c-430,0 -800,-84 -1110,-250 -309,-167 -561,-390 -755,-668l0 834 -782 0 0 -7297 782 0 0 2930c194,-285 446,-511 755,-678 310,-167 680,-250 1110,-250 508,0 951,120 1330,359 378,240 672,563 880,970 209,407 313,860 313,1360 0,494 -104,945 -313,1355 -208,411 -502,735 -880,975 -379,240 -822,360 -1330,360zm-104 -709c389,0 721,-90 996,-271 274,-181 484,-422 630,-725 146,-302 219,-630 219,-985 0,-361 -73,-691 -219,-990 -146,-299 -356,-539 -630,-719 -275,-181 -607,-271 -996,-271 -382,0 -709,90 -980,271 -271,180 -476,420 -615,719 -139,299 -208,629 -208,990 0,355 69,683 208,985 139,303 344,544 615,725 271,181 598,271 980,271zm7008 480c-487,204 -959,272 -1417,204 -458,-68 -868,-249 -1228,-543 -360,-293 -636,-668 -826,-1123 -194,-461 -273,-920 -237,-1375 35,-456 186,-869 452,-1241 266,-371 643,-659 1130,-863 494,-207 965,-274 1413,-202 448,72 847,255 1197,550 349,294 620,672 814,1134l121 288 -4029 1687c157,266 356,486 598,660 242,173 514,278 815,314 302,35 613,-14 933,-148 340,-142 594,-337 761,-584 168,-248 266,-517 295,-808l788 -330c14,499 -104,961 -352,1385 -248,424 -657,756 -1228,995zm-2882 -2161l3269 -1369c-236,-383 -553,-654 -950,-811 -398,-158 -827,-140 -1289,53 -462,194 -774,487 -937,879 -164,393 -195,809 -93,1248zm5339 2306l0 -5212 782 0 0 813c188,-250 417,-462 688,-636 271,-173 619,-260 1043,-260 361,0 700,85 1016,255 316,171 573,424 772,761 198,337 297,753 297,1246l0 3033 -782 0 0 -3012c0,-473 -136,-853 -407,-1142 -271,-288 -622,-432 -1053,-432 -291,0 -556,66 -792,198 -236,132 -426,318 -568,557 -142,240 -214,516 -214,829l0 3002 -782 0zm8288 2148c-653,0 -1185,-141 -1595,-422 -410,-282 -688,-648 -834,-1100l865 0c104,257 285,457 542,599 257,143 584,214 980,214 598,0 1034,-141 1308,-422 275,-282 412,-690 412,-1225l0 -719c-194,278 -446,502 -756,672 -309,170 -679,255 -1110,255 -507,0 -950,-116 -1329,-349 -379,-233 -672,-551 -881,-954 -208,-403 -312,-851 -312,-1344 0,-501 104,-951 312,-1350 209,-400 502,-716 881,-949 379,-233 822,-349 1329,-349 1490,0 2648,1147 2648,2655l0 2484c0,744 -214,1313 -641,1710 -428,396 -1034,594 -1819,594zm-84 -2856c383,0 708,-87 975,-261 268,-174 473,-408 615,-704 143,-295 214,-620 214,-974 0,-362 -71,-688 -214,-980 -142,-292 -347,-525 -615,-699 -267,-173 -592,-260 -975,-260 -382,0 -712,87 -990,260 -278,174 -490,407 -636,699 -146,292 -219,618 -219,980 0,354 73,679 219,974 146,296 358,530 636,704 278,174 608,261 990,261z"/>
  <path class="fil3" d="M46851 9575c-525,0 -980,-121 -1365,-363 -385,-241 -685,-569 -898,-982 -214,-413 -321,-868 -321,-1365 0,-504 107,-961 321,-1371 213,-410 513,-735 898,-977 385,-241 840,-362 1365,-362 623,0 1154,161 1592,483 437,322 733,739 887,1250l-851 0c-119,-301 -310,-546 -572,-735 -263,-189 -580,-284 -951,-284 -385,0 -721,91 -1008,273 -287,182 -508,424 -662,725 -154,301 -231,634 -231,998 0,357 77,688 231,992 154,305 375,548 662,730 287,182 623,273 1008,273 371,0 688,-94 951,-283 262,-189 453,-434 572,-736l851 0c-154,512 -450,928 -887,1250 -438,322 -969,484 -1592,484zm3456 -85l0 -7352 788 0 0 2920c189,-252 420,-466 693,-641 273,-175 623,-262 1050,-262 364,0 706,86 1024,257 319,172 578,427 777,767 200,340 300,758 300,1255l0 3056 -788 0 0 -3035c0,-476 -137,-859 -410,-1150 -273,-291 -626,-436 -1060,-436 -295,0 -561,67 -799,200 -238,133 -429,320 -572,562 -144,241 -215,519 -215,835l0 3024 -788 0zm8161 85c-511,0 -958,-121 -1339,-363 -382,-241 -678,-569 -888,-982 -210,-413 -315,-868 -315,-1365 0,-504 105,-961 315,-1371 210,-410 506,-735 888,-977 381,-241 828,-362 1339,-362 434,0 807,84 1118,252 312,168 566,396 762,683l0 -851 788 0 0 5251 -788 0 0 -840c-196,280 -450,504 -762,672 -311,168 -684,253 -1118,253zm105 -715c392,0 723,-91 992,-273 270,-182 475,-425 615,-730 140,-304 210,-635 210,-992 0,-364 -70,-697 -210,-998 -140,-301 -345,-543 -615,-725 -269,-182 -600,-273 -992,-273 -385,0 -718,91 -998,273 -280,182 -494,424 -641,725 -147,301 -220,634 -220,998 0,357 73,688 220,992 147,305 361,548 641,730 280,182 613,273 998,273zm4495 630l0 -4558 -1071 0 0 -693 1071 0 0 -1880 788 0 0 1880 1208 0 0 693 -1208 0 0 4558 -788 0z"/>
  <polygon class="fil3" points="41758,11658 41758,2048 42332,2048 42332,11658 "/>
 </g>
</svg>
